<svg width="1128" height="222" viewBox="0 0 1128 222" fill="none" xmlns="http://www.w3.org/2000/svg">
<path d="M215.219 41.1903H160.827H60.7556V86.4995H215.219V41.1903Z" fill="#3782E6"/>
<path d="M215.219 129.749H160.827H60.7556V157.553H215.219V129.749Z" fill="#3782E6"/>
<path d="M215.219 157.553H75.1722V167.85H215.219V157.553Z" fill="#3782E6"/>
<path d="M215.219 104.024H189.478C189.478 104.024 188.963 102.995 202.091 116.372C215.219 129.749 215.219 129.749 215.219 129.749V104.024Z" fill="#3782E6"/>
<rect width="51.4878" height="58.6961" transform="matrix(-1 0 0 1 266.707 63.8449)" fill="#3782E6"/>
<rect width="27.8034" height="22.6546" transform="matrix(-1 0 0 1 243.023 41.1903)" fill="#3782E6"/>
<path d="M266.707 63.8449L243.023 41.1903V63.8449H266.707Z" fill="#3782E6"/>
<path d="M46.3391 180.207H25.7439V211.1H46.3391V180.207Z" fill="#3782E6"/>
<path d="M204.922 180.207H184.326V211.1H204.922V180.207Z" fill="#3782E6"/>
<path d="M30.8927 0H10.2976V30.8927H30.8927V0Z" fill="#3782E6"/>
<path d="M25.7439 211.1H15.4463L25.7439 221.398V211.1Z" fill="#3782E6"/>
<path d="M184.326 211.1H174.029L184.326 221.398V211.1Z" fill="#3782E6"/>
<path d="M10.2976 30.8927H9.05991e-06L10.2976 41.1903V30.8927Z" fill="#3782E6"/>
<rect width="10.2976" height="20.5951" transform="matrix(-1 0 0 1 25.7439 190.505)" fill="#3782E6"/>
<rect width="10.2976" height="30.8927" transform="matrix(-1 0 0 1 184.326 180.207)" fill="#3782E6"/>
<rect width="10.2976" height="30.8927" transform="matrix(-1 0 0 1 10.2976 0)" fill="#3782E6"/>
<rect width="30.8927" height="10.2976" transform="matrix(-1 0 0 1 56.6366 211.1)" fill="#3782E6"/>
<rect width="10.2976" height="10.2976" transform="matrix(-1 0 0 1 194.624 211.1)" fill="#3782E6"/>
<path d="M41.1902 30.8927H26.7737V140.047H41.1902V30.8927Z" fill="#3782E6"/>
<path d="M18.5356 30.8927H10.2975V77.2318H18.5356V30.8927Z" fill="#3782E6"/>
<path d="M18.5356 77.2318H10.2975L18.5356 86.4996V77.2318Z" fill="#3782E6"/>
<path d="M56.6366 190.505L46.339 180.207V190.505H56.6366Z" fill="#3782E6"/>
<path d="M215.219 190.505L204.922 180.207V190.505H215.219Z" fill="#3782E6"/>
<path d="M41.1902 10.2976L30.8927 0V10.2976H41.1902Z" fill="#3782E6"/>
<rect width="10.2976" height="20.5951" transform="matrix(-1 0 0 1 56.6366 190.505)" fill="#3782E6"/>
<rect width="10.2976" height="20.5951" transform="matrix(-1 0 0 1 215.219 190.505)" fill="#3782E6"/>
<rect width="10.2976" height="20.5951" transform="matrix(-1 0 0 1 41.1902 10.2976)" fill="#3782E6"/>
<path d="M266.707 122.541H215.219V167.85L266.707 122.541Z" fill="#3782E6"/>
<rect width="8.23805" height="96.7971" transform="matrix(-1 0 0 1 26.7737 30.8927)" fill="#3782E6"/>
<path d="M26.7737 127.69H18.5356L26.7737 140.047V127.69Z" fill="#3782E6"/>
<rect width="133.868" height="17.5059" transform="matrix(-1 0 0 1 215.219 86.4996)" fill="#3782E6"/>
<path d="M81.3508 86.4996H60.7556L81.3508 104.005V86.4996Z" fill="#3782E6"/>
<path d="M75.1722 157.553H60.7556L72.083 167.85H75.1722V157.553Z" fill="#3782E6"/>
<path d="M361.346 41.0244V176H331.124V41.0244H361.346ZM414.464 97.9441V121.305H352.91V97.9441H414.464ZM420.397 41.0244V64.4783H352.91V41.0244H420.397ZM464.153 75.6953V176H435.137V75.6953H464.153ZM433.376 49.7385C433.376 45.5359 434.859 42.1059 437.826 39.4484C440.792 36.7292 444.686 35.3695 449.506 35.3695C454.327 35.3695 458.22 36.7292 461.187 39.4484C464.215 42.1059 465.729 45.5359 465.729 49.7385C465.729 53.8792 464.215 57.3092 461.187 60.0285C458.22 62.686 454.327 64.0147 449.506 64.0147C444.686 64.0147 440.792 62.686 437.826 60.0285C434.859 57.3092 433.376 53.8792 433.376 49.7385ZM514.027 99.0565V176H485.104V75.6953H512.266L514.027 99.0565ZM543.971 74.9537L543.507 101.93C542.271 101.745 540.664 101.59 538.686 101.467C536.709 101.281 535.009 101.189 533.588 101.189C529.88 101.189 526.666 101.652 523.947 102.579C521.289 103.444 519.064 104.742 517.272 106.473C515.542 108.203 514.244 110.366 513.379 112.962C512.513 115.496 512.081 118.431 512.081 121.769L506.611 119.08C506.611 112.468 507.26 106.411 508.558 100.911C509.856 95.4102 511.741 90.6514 514.213 86.6343C516.685 82.5554 519.713 79.4035 523.298 77.1786C526.882 74.9537 530.961 73.8413 535.535 73.8413C537.018 73.8413 538.532 73.934 540.077 74.1194C541.622 74.3048 542.92 74.5829 543.971 74.9537ZM609.233 148.096C609.233 146.242 608.646 144.605 607.472 143.183C606.36 141.762 604.32 140.464 601.354 139.29C598.449 138.115 594.339 136.941 589.024 135.767C584.018 134.716 579.352 133.357 575.026 131.688C570.7 129.957 566.93 127.887 563.716 125.477C560.503 123.005 558 120.1 556.207 116.763C554.415 113.364 553.519 109.501 553.519 105.175C553.519 100.972 554.415 96.9861 556.207 93.2162C558.061 89.4463 560.719 86.109 564.18 83.2043C567.702 80.2996 571.967 78.0129 576.973 76.3443C582.041 74.6756 587.788 73.8413 594.216 73.8413C603.053 73.8413 610.686 75.2318 617.113 78.0129C623.541 80.7322 628.485 84.5639 631.946 89.5081C635.407 94.3904 637.137 99.9835 637.137 106.287H608.214C608.214 103.692 607.719 101.436 606.73 99.52C605.742 97.6041 604.227 96.1209 602.188 95.0703C600.149 93.9578 597.46 93.4016 594.123 93.4016C591.527 93.4016 589.24 93.8651 587.263 94.7922C585.347 95.6574 583.833 96.8625 582.72 98.4076C581.67 99.9526 581.144 101.745 581.144 103.784C581.144 105.206 581.453 106.504 582.071 107.678C582.751 108.79 583.771 109.841 585.131 110.83C586.552 111.757 588.375 112.591 590.6 113.333C592.887 114.074 595.668 114.785 598.943 115.465C605.927 116.763 612.293 118.586 618.04 120.934C623.85 123.283 628.485 126.527 631.946 130.668C635.468 134.809 637.23 140.278 637.23 147.077C637.23 151.526 636.21 155.605 634.171 159.313C632.193 163.022 629.319 166.266 625.549 169.047C621.779 171.828 617.268 173.991 612.015 175.536C606.761 177.082 600.828 177.854 594.216 177.854C584.76 177.854 576.756 176.155 570.205 172.755C563.654 169.356 558.71 165.092 555.373 159.962C552.097 154.771 550.46 149.456 550.46 144.017H577.622C577.745 147.355 578.58 150.074 580.125 152.175C581.732 154.277 583.802 155.822 586.336 156.81C588.87 157.738 591.713 158.201 594.864 158.201C598.016 158.201 600.643 157.768 602.744 156.903C604.845 156.038 606.452 154.864 607.565 153.38C608.677 151.835 609.233 150.074 609.233 148.096ZM704.347 75.6953V95.9973H644.831V75.6953H704.347ZM658.459 50.8509H687.475V144.574C687.475 147.355 687.815 149.487 688.495 150.97C689.174 152.453 690.287 153.504 691.832 154.122C693.377 154.678 695.355 154.956 697.765 154.956C699.495 154.956 700.979 154.895 702.215 154.771C703.451 154.647 704.594 154.493 705.645 154.307V175.258C703.173 176.062 700.546 176.68 697.765 177.112C694.984 177.607 691.955 177.854 688.68 177.854C682.438 177.854 677.03 176.834 672.457 174.795C667.945 172.755 664.484 169.542 662.074 165.154C659.664 160.704 658.459 154.926 658.459 147.818V50.8509ZM782.588 41.0244V176H752.46V41.0244H782.588ZM823.656 41.0244V64.4783H712.227V41.0244H823.656ZM875.847 177.854C867.875 177.854 860.737 176.587 854.433 174.053C848.129 171.519 842.783 168.028 838.395 163.578C834.069 159.066 830.763 153.875 828.476 148.004C826.189 142.132 825.046 135.86 825.046 129.185V125.662C825.046 118.184 826.097 111.293 828.198 104.989C830.299 98.6857 833.358 93.2162 837.376 88.5811C841.455 83.8841 846.46 80.2687 852.393 77.7348C858.326 75.1391 865.094 73.8413 872.695 73.8413C879.803 73.8413 886.137 75.0155 891.7 77.364C897.262 79.6507 901.959 82.9571 905.79 87.2832C909.622 91.5475 912.527 96.708 914.504 102.765C916.544 108.759 917.564 115.496 917.564 122.974V134.84H836.727V116.207H889.197V113.982C889.197 110.459 888.548 107.369 887.25 104.711C886.014 102.054 884.16 100.014 881.688 98.593C879.277 97.1097 876.218 96.3681 872.51 96.3681C868.987 96.3681 866.052 97.1097 863.703 98.593C861.355 100.076 859.47 102.177 858.048 104.897C856.689 107.554 855.7 110.675 855.082 114.26C854.464 117.783 854.155 121.583 854.155 125.662V129.185C854.155 133.079 854.68 136.632 855.731 139.846C856.781 143.06 858.326 145.81 860.366 148.096C862.405 150.383 864.877 152.175 867.782 153.473C870.687 154.771 873.993 155.42 877.701 155.42C882.275 155.42 886.632 154.555 890.773 152.824C894.913 151.032 898.498 148.251 901.526 144.481L915.061 159.962C913.021 162.929 910.147 165.803 906.439 168.584C902.793 171.303 898.405 173.528 893.275 175.258C888.146 176.989 882.337 177.854 875.847 177.854ZM973.556 155.327C976.646 155.327 979.335 154.74 981.621 153.566C983.908 152.392 985.67 150.754 986.906 148.653C988.203 146.49 988.852 143.894 988.852 140.866H1016.11C1016.11 148.158 1014.22 154.586 1010.45 160.148C1006.74 165.71 1001.74 170.067 995.434 173.219C989.13 176.309 982.023 177.854 974.113 177.854C966.325 177.854 959.527 176.587 953.718 174.053C947.908 171.458 943.057 167.842 939.163 163.207C935.27 158.572 932.334 153.195 930.357 147.077C928.441 140.896 927.483 134.222 927.483 127.053V124.643C927.483 117.535 928.441 110.892 930.357 104.711C932.334 98.5312 935.27 93.1235 939.163 88.4883C943.057 83.8532 947.878 80.2687 953.625 77.7348C959.435 75.1391 966.233 73.8413 974.02 73.8413C982.239 73.8413 989.501 75.4172 995.805 78.5691C1002.17 81.721 1007.15 86.2635 1010.73 92.1965C1014.31 98.0677 1016.11 105.144 1016.11 113.425H988.852C988.852 110.212 988.265 107.338 987.091 104.804C985.979 102.208 984.248 100.169 981.9 98.6857C979.613 97.1406 976.77 96.3681 973.371 96.3681C969.848 96.3681 966.943 97.1406 964.657 98.6857C962.432 100.169 960.732 102.239 959.558 104.897C958.384 107.554 957.58 110.583 957.148 113.982C956.715 117.319 956.499 120.873 956.499 124.643V127.053C956.499 130.885 956.715 134.531 957.148 137.992C957.58 141.391 958.384 144.388 959.558 146.984C960.794 149.58 962.525 151.619 964.75 153.102C966.974 154.586 969.91 155.327 973.556 155.327ZM1058.75 33.6082V176H1029.83V33.6082H1058.75ZM1054.95 122.325L1047.72 122.51C1047.72 115.465 1048.58 109.007 1050.31 103.135C1052.11 97.2024 1054.64 92.042 1057.92 87.654C1061.19 83.2661 1065.12 79.867 1069.69 77.4567C1074.32 75.0464 1079.42 73.8413 1084.99 73.8413C1089.93 73.8413 1094.44 74.552 1098.52 75.9734C1102.6 77.3949 1106.12 79.6507 1109.09 82.7408C1112.05 85.8309 1114.34 89.8789 1115.95 94.8849C1117.55 99.8908 1118.36 105.978 1118.36 113.147V176H1089.25V112.962C1089.25 108.698 1088.63 105.36 1087.4 102.95C1086.22 100.54 1084.49 98.8402 1082.2 97.8514C1079.98 96.8625 1077.26 96.3681 1074.05 96.3681C1070.28 96.3681 1067.16 97.0479 1064.68 98.4076C1062.21 99.7054 1060.26 101.529 1058.84 103.877C1057.42 106.226 1056.4 108.976 1055.78 112.128C1055.23 115.28 1054.95 118.679 1054.95 122.325Z" fill="black"/>
</svg>
