<svg width="267" height="222" viewBox="0 0 267 222" fill="none" xmlns="http://www.w3.org/2000/svg">
<path d="M215.219 41.1903H160.827H60.7556V86.4995H215.219V41.1903Z" fill="#3782E6"/>
<path d="M215.219 129.749H160.827H60.7556V157.553H215.219V129.749Z" fill="#3782E6"/>
<path d="M215.219 157.553H75.1722V167.85H215.219V157.553Z" fill="#3782E6"/>
<path d="M215.219 104.024H189.478C189.478 104.024 188.963 102.995 202.091 116.372C215.219 129.749 215.219 129.749 215.219 129.749V104.024Z" fill="#3782E6"/>
<rect width="51.4878" height="58.6961" transform="matrix(-1 0 0 1 266.707 63.8449)" fill="#3782E6"/>
<rect width="27.8034" height="22.6546" transform="matrix(-1 0 0 1 243.023 41.1903)" fill="#3782E6"/>
<path d="M266.707 63.8449L243.023 41.1903V63.8449H266.707Z" fill="#3782E6"/>
<path d="M46.3391 180.207H25.7439V211.1H46.3391V180.207Z" fill="#3782E6"/>
<path d="M204.922 180.207H184.326V211.1H204.922V180.207Z" fill="#3782E6"/>
<path d="M30.8927 0H10.2976V30.8927H30.8927V0Z" fill="#3782E6"/>
<path d="M25.7439 211.1H15.4463L25.7439 221.398V211.1Z" fill="#3782E6"/>
<path d="M184.326 211.1H174.029L184.326 221.398V211.1Z" fill="#3782E6"/>
<path d="M10.2976 30.8927H9.05991e-06L10.2976 41.1903V30.8927Z" fill="#3782E6"/>
<rect width="10.2976" height="20.5951" transform="matrix(-1 0 0 1 25.7439 190.505)" fill="#3782E6"/>
<rect width="10.2976" height="30.8927" transform="matrix(-1 0 0 1 184.326 180.207)" fill="#3782E6"/>
<rect width="10.2976" height="30.8927" transform="matrix(-1 0 0 1 10.2976 0)" fill="#3782E6"/>
<rect width="30.8927" height="10.2976" transform="matrix(-1 0 0 1 56.6366 211.1)" fill="#3782E6"/>
<rect width="10.2976" height="10.2976" transform="matrix(-1 0 0 1 194.624 211.1)" fill="#3782E6"/>
<path d="M41.1902 30.8927H26.7737V140.047H41.1902V30.8927Z" fill="#3782E6"/>
<path d="M18.5356 30.8927H10.2975V77.2318H18.5356V30.8927Z" fill="#3782E6"/>
<path d="M18.5356 77.2318H10.2975L18.5356 86.4996V77.2318Z" fill="#3782E6"/>
<path d="M56.6366 190.505L46.339 180.207V190.505H56.6366Z" fill="#3782E6"/>
<path d="M215.219 190.505L204.922 180.207V190.505H215.219Z" fill="#3782E6"/>
<path d="M41.1902 10.2976L30.8927 0V10.2976H41.1902Z" fill="#3782E6"/>
<rect width="10.2976" height="20.5951" transform="matrix(-1 0 0 1 56.6366 190.505)" fill="#3782E6"/>
<rect width="10.2976" height="20.5951" transform="matrix(-1 0 0 1 215.219 190.505)" fill="#3782E6"/>
<rect width="10.2976" height="20.5951" transform="matrix(-1 0 0 1 41.1902 10.2976)" fill="#3782E6"/>
<path d="M266.707 122.541H215.219V167.85L266.707 122.541Z" fill="#3782E6"/>
<rect width="8.23805" height="96.7971" transform="matrix(-1 0 0 1 26.7737 30.8927)" fill="#3782E6"/>
<path d="M26.7737 127.69H18.5356L26.7737 140.047V127.69Z" fill="#3782E6"/>
<rect width="133.868" height="17.5059" transform="matrix(-1 0 0 1 215.219 86.4996)" fill="#3782E6"/>
<path d="M81.3508 86.4996H60.7556L81.3508 104.005V86.4996Z" fill="#3782E6"/>
<path d="M75.1722 157.553H60.7556L72.083 167.85H75.1722V157.553Z" fill="#3782E6"/>
</svg>
